<svg viewBox="0 0 56.1036 14" fill="none" xmlns="http://www.w3.org/2000/svg">
<g id="SKENE ICON">
<path d="M5.76471 14H4.94121V13.1765H5.76471V14Z" fill="#FAF1E9"/>
<path d="M9.05884 14H5.76471V13.1765H9.05884V14Z" fill="#FAF1E9"/>
<path d="M4.94121 12.353H5.76471V13.1765L3.29413 13.1765V12.353H2.47058V11.5295H4.94121V12.353Z" fill="#FAF1E9"/>
<path d="M6.58825 12.353H7.41179V11.5295H8.23534V12.353H9.05884V13.1765L5.76475 13.1765V11.5295H6.58825V12.353Z" fill="#FAF1E9"/>
<path d="M11.5295 12.353H10.7059V13.1765H9.05888V11.5295H11.5295V12.353Z" fill="#FAF1E9"/>
<path d="M4.11767 11.5294H1.64709V10.7059H4.11767V11.5294Z" fill="#FAF1E9"/>
<path d="M5.76471 11.5294L4.94121 11.5295V10.7059H5.76471V11.5294Z" fill="#FAF1E9"/>
<path d="M7.41179 11.5295H6.58825V10.7059H7.41179V11.5295Z" fill="#FAF1E9"/>
<path d="M9.05884 11.5294L8.23534 11.5295V10.7059H9.05884V11.5294Z" fill="#FAF1E9"/>
<path d="M12.353 11.5294H9.88238V10.7059H12.353V11.5294Z" fill="#FAF1E9"/>
<path d="M3.29413 10.7059H0.823543V9.88238H3.29413V10.7059Z" fill="#FAF1E9"/>
<path d="M4.94121 10.7059H4.11767V9.88238H4.94121V10.7059Z" fill="#FAF1E9"/>
<path d="M6.58825 10.7059L5.76475 10.7059V9.88238H6.58825V10.7059Z" fill="#FAF1E9"/>
<path d="M8.23534 10.7059H7.41179V9.88238H8.23534V10.7059Z" fill="#FAF1E9"/>
<path d="M9.88238 10.7059L9.05888 10.7059V9.88238H9.88238V10.7059Z" fill="#FAF1E9"/>
<path d="M13.1765 9.88238V10.7059H10.7059V9.88238H13.1765Z" fill="#FAF1E9"/>
<path d="M1.64709 9.05883H2.47058V8.23534H3.29413V9.05883H4.11767V9.88238H0.823543V9.05883H0V8.23534H1.64709V9.05883Z" fill="#FAF1E9"/>
<path d="M5.76471 9.88233L4.94121 9.88238V9.05883H5.76471V9.88233Z" fill="#FAF1E9"/>
<path d="M9.05884 9.88233L8.23534 9.88238V9.05883H9.05884V9.88233Z" fill="#FAF1E9"/>
<path d="M10.7059 9.88238H9.88238V9.05883H10.7059V9.88238Z" fill="#FAF1E9"/>
<path d="M14 9.05883H13.1765V9.88238L11.5295 9.88233V9.05883H10.7059V8.23534H14V9.05883Z" fill="#FAF1E9"/>
<path d="M6.58825 9.05883H5.76471L5.76475 8.23534H6.58825V9.05883Z" fill="#FAF1E9"/>
<path d="M9.88238 9.05883H9.05884L9.05888 8.23534H9.88238V9.05883Z" fill="#FAF1E9"/>
<path d="M2.47058 8.23534H0V7.41179H2.47058V8.23534Z" fill="#FAF1E9"/>
<path d="M4.11767 8.23529L3.29413 8.23534V7.41179H4.11767V8.23529Z" fill="#FAF1E9"/>
<path d="M9.05884 8.23529H8.23534V7.41179H9.05884V8.23529Z" fill="#FAF1E9"/>
<path d="M10.7059 8.23534H9.88238V7.41179H10.7059V8.23534Z" fill="#FAF1E9"/>
<path d="M14 8.23534L11.5295 8.23529V7.41179H14V8.23534Z" fill="#FAF1E9"/>
<path d="M1.64709 7.41175L0 7.41179V6.58825H1.64709V7.41175Z" fill="#FAF1E9"/>
<path d="M3.29413 7.41179H2.47058V6.58825H3.29413V7.41179Z" fill="#FAF1E9"/>
<path d="M11.5295 7.41179H10.7059V6.58825H11.5295V7.41179Z" fill="#FAF1E9"/>
<path d="M14 7.41179L12.353 7.41175V6.58825H14V7.41179Z" fill="#FAF1E9"/>
<path d="M1.64709 5.76471H0.823543V6.58821L0 6.58825V4.94121H1.64709V5.76471Z" fill="#FAF1E9"/>
<path d="M2.47058 6.58825H1.64709V5.76471H2.47058V6.58825Z" fill="#FAF1E9"/>
<path d="M4.11767 6.58821L3.29413 6.58825V5.76471H4.11767V6.58821Z" fill="#FAF1E9"/>
<path d="M6.58825 6.58821H5.76475V5.76471H6.58825V6.58821Z" fill="#FAF1E9"/>
<path d="M10.7059 6.58825L9.88238 6.58821V5.76471H10.7059V6.58825Z" fill="#FAF1E9"/>
<path d="M14 6.58825H11.5295V5.76471H12.353V4.94121H14V6.58825Z" fill="#FAF1E9"/>
<path d="M3.29413 5.76471H2.47058V4.94121H3.29413V5.76471Z" fill="#FAF1E9"/>
<path d="M4.94121 5.76471H4.11767V4.94121H4.94121V5.76471Z" fill="#FAF1E9"/>
<path d="M11.5295 5.76471H10.7059V4.94121H11.5295V5.76471Z" fill="#FAF1E9"/>
<path d="M4.11767 4.94121L0.823543 4.94117V4.11767H4.11767V4.94121Z" fill="#FAF1E9"/>
<path d="M9.05884 4.94117H8.23534V4.11767H9.05884V4.94117Z" fill="#FAF1E9"/>
<path d="M10.7059 4.94121L9.88238 4.94117V4.11767H10.7059V4.94121Z" fill="#FAF1E9"/>
<path d="M13.1765 4.94117L11.5295 4.94121V4.11767H13.1765V4.94117Z" fill="#FAF1E9"/>
<path d="M4.11767 3.29413H3.29413V4.11762L0.823543 4.11767V3.29413H1.64709V2.47063H4.11767V3.29413Z" fill="#FAF1E9"/>
<path d="M4.94121 4.11762L4.11767 4.11767V3.29413H4.94121V4.11762Z" fill="#FAF1E9"/>
<path d="M6.58825 4.11762H5.76475V3.29413H6.58825V4.11762Z" fill="#FAF1E9"/>
<path d="M9.88238 4.11767L9.05888 4.11762V3.29413H9.88238V4.11767Z" fill="#FAF1E9"/>
<path d="M12.353 3.29413H13.1765V4.11767H10.7059V3.29413H9.88238V2.47063H12.353V3.29413Z" fill="#FAF1E9"/>
<path d="M5.76475 3.29413H4.94121V2.47063H5.76471L5.76475 3.29413Z" fill="#FAF1E9"/>
<path d="M7.41179 3.29413H6.58825V2.47063H7.41179V3.29413Z" fill="#FAF1E9"/>
<path d="M9.05888 3.29413H8.23534V2.47063H9.05884L9.05888 3.29413Z" fill="#FAF1E9"/>
<path d="M5.76471 1.64709H4.94121V2.47063L2.47058 2.47058V1.64709H3.29413V0.823543H4.94121V0H5.76471V1.64709Z" fill="#FAF1E9"/>
<path d="M9.05884 1.64709H8.23534V2.47063H7.41179V1.64709H6.58825V2.47063L5.76475 2.47058L5.76471 0H9.05884V1.64709Z" fill="#FAF1E9"/>
<path d="M10.7059 1.64709H11.5295V2.47058H9.05888V0.823543H10.7059V1.64709Z" fill="#FAF1E9"/>
</g>
<g id="Skene">
<path d="M52.8728 11.7449C52.1836 11.7449 51.5848 11.5985 51.0765 11.3056C50.5682 11.004 50.1762 10.5819 49.9005 10.0391C49.6248 9.49632 49.487 8.86309 49.487 8.1394C49.487 7.41571 49.6248 6.78679 49.9005 6.25263C50.1762 5.70986 50.5639 5.28771 51.0636 4.98617C51.5719 4.68463 52.162 4.53386 52.834 4.53386C53.4888 4.53386 54.0617 4.68032 54.5528 4.97325C55.0525 5.26617 55.4359 5.68832 55.703 6.23971C55.97 6.79109 56.1036 7.45448 56.1036 8.22986V8.60463H51.2057C51.2402 9.20771 51.4039 9.66432 51.6968 9.97448C51.9983 10.276 52.3947 10.4268 52.8857 10.4268C53.2562 10.4268 53.562 10.3449 53.8033 10.1812C54.0531 10.0089 54.2254 9.77202 54.3202 9.47048L56.0131 9.57386C55.8236 10.2459 55.4488 10.7757 54.8888 11.1634C54.3374 11.5511 53.6654 11.7449 52.8728 11.7449ZM51.2057 7.49325H54.3977C54.3633 6.93325 54.2039 6.51971 53.9196 6.25263C53.6353 5.97694 53.2734 5.83909 52.834 5.83909C52.3947 5.83909 52.0285 5.98125 51.7356 6.26556C51.4513 6.54986 51.2747 6.95909 51.2057 7.49325Z" fill="#FAF1E9"/>
<path d="M42.3548 11.5899V4.68894H43.8539L43.9185 6.6274L43.7247 6.54986C43.7936 6.0674 43.9357 5.67971 44.1511 5.38679C44.3665 5.09386 44.6293 4.87848 44.9394 4.74063C45.2496 4.60279 45.5899 4.53386 45.9604 4.53386C46.4687 4.53386 46.8951 4.64586 47.2397 4.86986C47.593 5.09386 47.86 5.40402 48.041 5.80032C48.2219 6.18802 48.3124 6.64032 48.3124 7.15725V11.5899H46.6582V7.68709C46.6582 7.2994 46.6194 6.97202 46.5419 6.70494C46.4644 6.43786 46.3351 6.2354 46.1542 6.09756C45.9819 5.95109 45.7493 5.87786 45.4564 5.87786C45.017 5.87786 44.6637 6.03294 44.3967 6.34309C44.1382 6.65325 44.009 7.10125 44.009 7.68709V11.5899H42.3548Z" fill="#FAF1E9"/>
<path d="M37.8956 11.7449C37.2064 11.7449 36.6076 11.5985 36.0993 11.3056C35.591 11.004 35.199 10.5819 34.9233 10.0391C34.6476 9.49632 34.5098 8.86309 34.5098 8.1394C34.5098 7.41571 34.6476 6.78679 34.9233 6.25263C35.199 5.70986 35.5867 5.28771 36.0864 4.98617C36.5947 4.68463 37.1849 4.53386 37.8569 4.53386C38.5116 4.53386 39.0846 4.68032 39.5756 4.97325C40.0753 5.26617 40.4587 5.68832 40.7258 6.23971C40.9929 6.79109 41.1264 7.45448 41.1264 8.22986V8.60463H36.2286C36.263 9.20771 36.4267 9.66432 36.7196 9.97448C37.0212 10.276 37.4175 10.4268 37.9086 10.4268C38.279 10.4268 38.5849 10.3449 38.8261 10.1812C39.0759 10.0089 39.2483 9.77202 39.343 9.47048L41.0359 9.57386C40.8464 10.2459 40.4716 10.7757 39.9116 11.1634C39.3603 11.5511 38.6883 11.7449 37.8956 11.7449ZM36.2286 7.49325H39.4206C39.3861 6.93325 39.2267 6.51971 38.9424 6.25263C38.6581 5.97694 38.2963 5.83909 37.8569 5.83909C37.4175 5.83909 37.0513 5.98125 36.7584 6.26556C36.4741 6.54986 36.2975 6.95909 36.2286 7.49325Z" fill="#FAF1E9"/>
<path d="M27.6932 11.5899V2.41448H29.3473V7.8034L32.1775 4.68894H34.2193L31.5184 7.55786L34.3098 11.5899H32.4489L30.4329 8.54002L29.3473 9.69017V11.5899H27.6932Z" fill="#FAF1E9"/>
<path d="M22.6046 11.7966C21.8464 11.7966 21.1917 11.6631 20.6403 11.396C20.0889 11.1289 19.6538 10.7585 19.335 10.2846C19.0249 9.80216 18.844 9.24216 18.7923 8.60462L20.4981 8.50123C20.5498 8.89754 20.6618 9.23354 20.8341 9.50923C21.015 9.78492 21.252 9.996 21.5449 10.1425C21.8464 10.2803 22.2083 10.3492 22.6304 10.3492C22.9923 10.3492 23.2981 10.3062 23.548 10.22C23.8064 10.1252 24.0003 9.99169 24.1295 9.81939C24.2673 9.63846 24.3363 9.41877 24.3363 9.16031C24.3363 8.92769 24.2803 8.72093 24.1683 8.54C24.0563 8.35046 23.8409 8.18246 23.5221 8.036C23.2033 7.88092 22.7295 7.73016 22.1006 7.58369C21.3424 7.41139 20.735 7.21754 20.2784 7.00216C19.8218 6.77816 19.4901 6.50246 19.2833 6.17508C19.0766 5.83908 18.9732 5.42123 18.9732 4.92154C18.9732 4.38739 19.1067 3.91785 19.3738 3.51293C19.6409 3.09939 20.02 2.78062 20.511 2.55662C21.0021 2.324 21.5923 2.20769 22.2815 2.20769C23.0138 2.20769 23.6341 2.34123 24.1424 2.60831C24.6507 2.86677 25.0513 3.22431 25.3443 3.68092C25.6372 4.13754 25.8181 4.66308 25.887 5.25754L24.1941 5.33508C24.151 4.99908 24.0477 4.70616 23.884 4.45631C23.7289 4.20646 23.5135 4.01262 23.2378 3.87477C22.9707 3.72831 22.6433 3.65508 22.2557 3.65508C21.7732 3.65508 21.3898 3.76708 21.1055 3.99108C20.8298 4.20646 20.692 4.49508 20.692 4.85692C20.692 5.10677 20.748 5.31354 20.86 5.47723C20.9806 5.64092 21.1917 5.78308 21.4932 5.90369C21.7947 6.01569 22.2169 6.13631 22.7597 6.26554C23.5781 6.43785 24.2286 6.65754 24.711 6.92462C25.1935 7.19169 25.5381 7.50185 25.7449 7.85508C25.9517 8.20831 26.055 8.61323 26.055 9.06985C26.055 9.62985 25.9129 10.1166 25.6286 10.5302C25.3443 10.9351 24.9437 11.2495 24.4267 11.4735C23.9098 11.6889 23.3024 11.7966 22.6046 11.7966Z" fill="#FAF1E9"/>
</g>
</svg>
